<svg width="145" height="40" viewBox="0 0 145 40" fill="none" xmlns="http://www.w3.org/2000/svg">
<rect width="145" height="40" rx="20" fill="#E3CEC0"/>
<path d="M33.68 12.16H40.18V13.5H33.68V12.16ZM33.26 18.52H40.9V19.88H33.26V18.52ZM36.56 19.18H38V27.84C38 28.24 37.9467 28.5533 37.84 28.78C37.7333 29.0067 37.54 29.18 37.26 29.3C36.98 29.42 36.6067 29.4933 36.14 29.52C35.6867 29.5467 35.1133 29.56 34.42 29.56C34.3933 29.36 34.3333 29.12 34.24 28.84C34.1467 28.5733 34.0467 28.3333 33.94 28.12C34.46 28.1333 34.9267 28.14 35.34 28.14C35.7667 28.14 36.0467 28.14 36.18 28.14C36.3267 28.1267 36.4267 28.1 36.48 28.06C36.5333 28.02 36.56 27.9333 36.56 27.8V19.18ZM39.72 12.16H40.04L40.34 12.08L41.28 12.74C40.9733 13.2467 40.6133 13.7667 40.2 14.3C39.7867 14.8333 39.36 15.34 38.92 15.82C38.48 16.2867 38.0467 16.7 37.62 17.06C37.5267 16.9133 37.3867 16.76 37.2 16.6C37.0267 16.4267 36.8733 16.28 36.74 16.16C37.1133 15.84 37.4867 15.4667 37.86 15.04C38.2333 14.6133 38.5867 14.1733 38.92 13.72C39.2533 13.2667 39.52 12.8467 39.72 12.46V12.16ZM40.48 18.52H40.68L40.9 18.46L41.84 18.72C41.5867 19.48 41.3067 20.2667 41 21.08C40.7067 21.88 40.4267 22.5533 40.16 23.1L39.02 22.8C39.18 22.4667 39.3467 22.0733 39.52 21.62C39.6933 21.1533 39.86 20.6733 40.02 20.18C40.1933 19.6733 40.3467 19.1933 40.48 18.74V18.52ZM34.26 15.66L35.06 14.68C35.62 14.96 36.1933 15.2867 36.78 15.66C37.38 16.0333 37.94 16.42 38.46 16.82C38.98 17.2067 39.4 17.5667 39.72 17.9L38.86 19.02C38.5533 18.6733 38.14 18.3 37.62 17.9C37.1133 17.4867 36.5667 17.0867 35.98 16.7C35.3933 16.3 34.82 15.9533 34.26 15.66ZM41.42 12.14H51.58V13.44H41.42V12.14ZM43.6 19.56V21.52H49.46V19.56H43.6ZM43.6 22.64V24.62H49.46V22.64H43.6ZM43.6 16.52V18.44H49.46V16.52H43.6ZM42.2 15.34H50.9V25.78H42.2V15.34ZM45.72 12.76L47.42 12.98C47.26 13.5533 47.0933 14.1333 46.92 14.72C46.7467 15.3067 46.58 15.8133 46.42 16.24L45.08 15.98C45.16 15.6733 45.24 15.3333 45.32 14.96C45.4133 14.5733 45.4933 14.1867 45.56 13.8C45.6267 13.4133 45.68 13.0667 45.72 12.76ZM44.2 26.14L45.5 26.92C45.14 27.2667 44.7067 27.6133 44.2 27.96C43.6933 28.3067 43.1533 28.6267 42.58 28.92C42.02 29.2133 41.4733 29.46 40.94 29.66C40.82 29.5267 40.66 29.36 40.46 29.16C40.26 28.96 40.08 28.7933 39.92 28.66C40.4533 28.46 40.9933 28.2267 41.54 27.96C42.0867 27.68 42.5933 27.3867 43.06 27.08C43.5267 26.76 43.9067 26.4467 44.2 26.14ZM47.3 27.02L48.42 26.24C48.8333 26.4667 49.26 26.7333 49.7 27.04C50.1533 27.3467 50.58 27.6533 50.98 27.96C51.3933 28.2667 51.7333 28.5467 52 28.8L50.8 29.66C50.56 29.4067 50.24 29.1267 49.84 28.82C49.4533 28.5133 49.0333 28.2 48.58 27.88C48.1267 27.56 47.7 27.2733 47.3 27.02ZM63.08 14.92H70.14V16.34H63.08V14.92ZM69.54 14.92H71.06C71.06 14.92 71.06 14.9733 71.06 15.08C71.06 15.1733 71.0533 15.2867 71.04 15.42C71.04 15.54 71.04 15.6333 71.04 15.7C70.9733 17.94 70.9 19.8333 70.82 21.38C70.7533 22.9267 70.6733 24.1933 70.58 25.18C70.5 26.1533 70.3933 26.9133 70.26 27.46C70.1267 28.0067 69.9667 28.3933 69.78 28.62C69.5533 28.9133 69.3133 29.1133 69.06 29.22C68.82 29.34 68.52 29.42 68.16 29.46C67.8267 29.5 67.3867 29.5133 66.84 29.5C66.3067 29.4867 65.76 29.4667 65.2 29.44C65.1867 29.2267 65.1333 28.9733 65.04 28.68C64.96 28.4 64.8467 28.1533 64.7 27.94C65.34 27.9933 65.92 28.02 66.44 28.02C66.9733 28.0333 67.3533 28.04 67.58 28.04C67.7667 28.0533 67.92 28.04 68.04 28C68.1733 27.96 68.2933 27.8733 68.4 27.74C68.5467 27.5667 68.68 27.22 68.8 26.7C68.92 26.18 69.02 25.4333 69.1 24.46C69.1933 23.4733 69.2733 22.2267 69.34 20.72C69.4067 19.2133 69.4733 17.3867 69.54 15.24V14.92ZM63.94 11.2L65.42 11.5C65.18 12.4867 64.8867 13.4533 64.54 14.4C64.1933 15.3467 63.8133 16.2333 63.4 17.06C63 17.8733 62.5667 18.6 62.1 19.24C62.0067 19.16 61.88 19.0667 61.72 18.96C61.56 18.8533 61.4 18.7467 61.24 18.64C61.08 18.5333 60.9333 18.4467 60.8 18.38C61.28 17.8067 61.7133 17.1333 62.1 16.36C62.5 15.5867 62.8533 14.76 63.16 13.88C63.4667 13 63.7267 12.1067 63.94 11.2ZM63.08 19.78L64.14 19.02C64.5933 19.4467 65.0467 19.92 65.5 20.44C65.9667 20.9467 66.3933 21.4533 66.78 21.96C67.1667 22.4667 67.4667 22.9267 67.68 23.34L66.56 24.22C66.3467 23.8067 66.0533 23.34 65.68 22.82C65.32 22.3 64.9067 21.7733 64.44 21.24C63.9867 20.7067 63.5333 20.22 63.08 19.78ZM59.16 18.94L60.38 18.62C60.5667 19.06 60.7533 19.5333 60.94 20.04C61.1267 20.5333 61.2933 21.0133 61.44 21.48C61.5867 21.9467 61.6933 22.36 61.76 22.72L60.46 23.12C60.4067 22.76 60.3067 22.34 60.16 21.86C60.0133 21.38 59.8533 20.8867 59.68 20.38C59.5067 19.86 59.3333 19.38 59.16 18.94ZM57.02 24.22L58.24 23.92C58.3867 24.64 58.52 25.4067 58.64 26.22C58.7733 27.0333 58.8667 27.7467 58.92 28.36L57.64 28.68C57.6133 28.2667 57.5667 27.8067 57.5 27.3C57.4467 26.7933 57.3733 26.2733 57.28 25.74C57.2 25.1933 57.1133 24.6867 57.02 24.22ZM54.62 24.06L55.96 24.34C55.8 25.1933 55.5933 26.06 55.34 26.94C55.1 27.8067 54.8533 28.5533 54.6 29.18C54.5067 29.1133 54.38 29.0533 54.22 29C54.06 28.9467 53.9 28.8867 53.74 28.82C53.58 28.7667 53.4333 28.7267 53.3 28.7C53.58 28.0867 53.8333 27.3667 54.06 26.54C54.2867 25.7 54.4733 24.8733 54.62 24.06ZM53.82 18.68C53.7933 18.5867 53.7533 18.4533 53.7 18.28C53.6467 18.1067 53.5867 17.9333 53.52 17.76C53.4533 17.5733 53.3933 17.42 53.34 17.3C53.5267 17.26 53.72 17.1467 53.92 16.96C54.12 16.76 54.34 16.5067 54.58 16.2C54.7 16.0533 54.88 15.8133 55.12 15.48C55.3733 15.1467 55.6467 14.7467 55.94 14.28C56.2467 13.8133 56.5533 13.3133 56.86 12.78C57.18 12.2467 57.4667 11.7067 57.72 11.16L59.12 11.76C58.4933 12.8933 57.8 14 57.04 15.08C56.2933 16.16 55.54 17.0933 54.78 17.88V17.92C54.78 17.92 54.7267 17.9467 54.62 18C54.5267 18.0533 54.42 18.12 54.3 18.2C54.18 18.2667 54.0667 18.3467 53.96 18.44C53.8667 18.52 53.82 18.6 53.82 18.68ZM53.82 18.68L53.78 17.6L54.5 17.14L58.48 16.78C58.44 16.98 58.4067 17.2 58.38 17.44C58.3667 17.6667 58.36 17.8533 58.36 18C57.4533 18.0933 56.72 18.18 56.16 18.26C55.6 18.3267 55.1667 18.3867 54.86 18.44C54.5533 18.48 54.32 18.52 54.16 18.56C54.0133 18.6 53.9 18.64 53.82 18.68ZM53.92 23.2C53.8933 23.0933 53.8467 22.96 53.78 22.8C53.7267 22.6267 53.6667 22.4467 53.6 22.26C53.5467 22.0733 53.4867 21.9067 53.42 21.76C53.66 21.72 53.9067 21.5933 54.16 21.38C54.4133 21.1533 54.7133 20.86 55.06 20.5C55.2467 20.3267 55.5133 20.04 55.86 19.64C56.22 19.2267 56.62 18.74 57.06 18.18C57.5133 17.62 57.9667 17.0133 58.42 16.36C58.8867 15.7067 59.32 15.04 59.72 14.36L61 15.18C60.1067 16.5267 59.1333 17.8333 58.08 19.1C57.0267 20.3533 55.98 21.4533 54.94 22.4V22.44C54.94 22.44 54.8867 22.4667 54.78 22.52C54.6733 22.56 54.5533 22.62 54.42 22.7C54.2867 22.78 54.1667 22.8667 54.06 22.96C53.9667 23.04 53.92 23.12 53.92 23.2ZM53.92 23.2L53.84 22.06L54.6 21.54L60.7 20.68C60.6867 20.88 60.6733 21.1 60.66 21.34C60.6467 21.58 60.6467 21.78 60.66 21.94C59.26 22.1533 58.1333 22.3333 57.28 22.48C56.44 22.6133 55.7933 22.7267 55.34 22.82C54.9 22.9 54.58 22.9733 54.38 23.04C54.18 23.0933 54.0267 23.1467 53.92 23.2ZM59.48 23.88L60.6 23.5C60.8667 24.1 61.12 24.76 61.36 25.48C61.6133 26.1867 61.8 26.8 61.92 27.32L60.74 27.76C60.66 27.4133 60.5467 27.02 60.4 26.58C60.2667 26.1267 60.12 25.6667 59.96 25.2C59.8 24.72 59.64 24.28 59.48 23.88ZM82.98 27.44H89.78V28.78H82.98V27.44ZM82.42 22.18H90.28V29.56H88.86V23.48H83.78V29.64H82.42V22.18ZM84.7 13.36H90.44V14.64H84.7V13.36ZM84.9 11.16L86.06 11.54C85.8067 12.6067 85.46 13.62 85.02 14.58C84.58 15.5267 84.1067 16.3267 83.6 16.98C83.5333 16.8867 83.4333 16.78 83.3 16.66C83.1667 16.54 83.0333 16.42 82.9 16.3C82.78 16.18 82.6667 16.0867 82.56 16.02C83.08 15.4467 83.54 14.7333 83.94 13.88C84.3533 13.0133 84.6733 12.1067 84.9 11.16ZM79.94 18.64C80.3533 18.4533 80.8467 18.22 81.42 17.94C82.0067 17.6467 82.6133 17.34 83.24 17.02L83.4 18.16C82.88 18.4667 82.3667 18.7733 81.86 19.08C81.3533 19.3733 80.86 19.6533 80.38 19.92L79.94 18.64ZM90.18 13.36H90.38L90.58 13.3L91.44 13.66C91.2133 14.3133 90.9667 14.98 90.7 15.66C90.4467 16.3267 90.2 16.8933 89.96 17.36L88.92 16.9C89.1333 16.4867 89.3533 15.9733 89.58 15.36C89.82 14.7467 90.02 14.1667 90.18 13.62V13.36ZM86.02 15.22H87.38C87.2467 16.0067 87.0533 16.76 86.8 17.48C86.56 18.2 86.2267 18.8733 85.8 19.5C85.3733 20.1133 84.82 20.6733 84.14 21.18C83.4733 21.6867 82.64 22.12 81.64 22.48C81.5733 22.3067 81.4667 22.1067 81.32 21.88C81.1733 21.6533 81.0333 21.48 80.9 21.36C81.82 21.0533 82.5867 20.68 83.2 20.24C83.8133 19.8 84.3067 19.3133 84.68 18.78C85.0533 18.2467 85.34 17.68 85.54 17.08C85.7533 16.4667 85.9133 15.8467 86.02 15.22ZM87.08 16.42C87.48 17.5133 88.0867 18.4867 88.9 19.34C89.7267 20.18 90.6933 20.78 91.8 21.14C91.6667 21.2733 91.52 21.46 91.36 21.7C91.2 21.94 91.08 22.1533 91 22.34C89.84 21.86 88.84 21.1267 88 20.14C87.16 19.1533 86.5133 18.0133 86.06 16.72L87.08 16.42ZM80.56 13.12L81.22 12.22C81.5933 12.42 81.98 12.6667 82.38 12.96C82.7933 13.2533 83.1133 13.5333 83.34 13.8L82.64 14.8C82.4267 14.5333 82.12 14.2467 81.72 13.94C81.32 13.62 80.9333 13.3467 80.56 13.12ZM74.22 17.24H79.62V18.44H74.22V17.24ZM74.22 19.88H79.62V21.06H74.22V19.88ZM73.44 14.6H80.24V15.84H73.44V14.6ZM74.82 22.54H79.74V28.38H74.82V27.12H78.5V23.8H74.82V22.54ZM74.22 22.54H75.44V29.34H74.22V22.54ZM75.44 11.72L76.54 11.18C76.8333 11.5933 77.12 12.04 77.4 12.52C77.68 12.9867 77.9 13.4 78.06 13.76L76.9 14.4C76.7533 14.04 76.54 13.6067 76.26 13.1C75.9933 12.58 75.72 12.12 75.44 11.72ZM102.56 20.94H106.78V22.16H102.56V20.94ZM102.6 17.54H107.46V25.58H102.6V24.32H106.22V18.78H102.6V17.54ZM101.88 17.54H103.1V26.6H101.88V17.54ZM103.48 11.2L104.94 11.52C104.687 12.4533 104.373 13.36 104 14.24C103.627 15.1067 103.213 15.92 102.76 16.68C102.307 17.4267 101.827 18.0933 101.32 18.68C101.227 18.5867 101.1 18.4867 100.94 18.38C100.793 18.26 100.64 18.1467 100.48 18.04C100.32 17.92 100.173 17.82 100.04 17.74C100.813 16.9667 101.493 16 102.08 14.84C102.667 13.68 103.133 12.4667 103.48 11.2ZM103.06 14.2H110.38V15.58H102.38L103.06 14.2ZM109.94 14.2H111.38C111.38 14.2 111.38 14.2533 111.38 14.36C111.38 14.4533 111.38 14.56 111.38 14.68C111.38 14.8 111.373 14.9 111.36 14.98C111.293 17.3667 111.22 19.38 111.14 21.02C111.073 22.66 110.993 24 110.9 25.04C110.82 26.08 110.713 26.8867 110.58 27.46C110.447 28.0333 110.28 28.4467 110.08 28.7C109.88 28.98 109.66 29.1733 109.42 29.28C109.193 29.4 108.92 29.48 108.6 29.52C108.28 29.5467 107.867 29.56 107.36 29.56C106.867 29.56 106.36 29.5467 105.84 29.52C105.827 29.2933 105.78 29.0333 105.7 28.74C105.62 28.46 105.507 28.22 105.36 28.02C105.947 28.0733 106.48 28.1 106.96 28.1C107.44 28.1133 107.787 28.12 108 28.12C108.2 28.12 108.353 28.1 108.46 28.06C108.58 28.02 108.687 27.9333 108.78 27.8C108.94 27.6267 109.073 27.2667 109.18 26.72C109.3 26.16 109.407 25.3667 109.5 24.34C109.593 23.3133 109.673 22 109.74 20.4C109.82 18.7867 109.887 16.8267 109.94 14.52V14.2ZM94.24 17.24H99.84V18.44H94.24V17.24ZM94.24 19.88H99.86V21.06H94.24V19.88ZM93.44 14.6H100.66V15.84H93.44V14.6ZM94.84 22.54H99.84V28.38H94.84V27.12H98.62V23.8H94.84V22.54ZM94.22 22.54H95.44V29.34H94.22V22.54ZM95.5 11.72L96.56 11.08C96.8667 11.4667 97.1667 11.9 97.46 12.38C97.7533 12.86 97.98 13.28 98.14 13.64L97.02 14.4C96.8733 14.04 96.6533 13.6067 96.36 13.1C96.0667 12.58 95.78 12.12 95.5 11.72Z" fill="#88827D"/>
</svg>
